<svg width="49" height="49" viewBox="0 0 49 49" fill="none" xmlns="http://www.w3.org/2000/svg">
<path d="M48.4984 45.1182L44.8984 12.9182C44.7984 12.4182 44.3984 12.0182 43.8984 12.0182H36.1984V3.91816C36.1984 2.11816 34.6984 0.618164 32.8984 0.618164H16.1984C14.3984 0.618164 12.8984 2.11816 12.8984 3.91816V12.0182H5.09844C4.59844 12.0182 4.19844 12.4182 4.09844 12.9182L0.498442 45.1182C0.398442 46.0182 0.698442 46.9182 1.29844 47.6182C1.89844 48.3182 2.79844 48.7182 3.69844 48.7182H45.1984C46.0984 48.7182 46.9984 48.3182 47.5984 47.6182C47.7984 47.4182 48.6984 46.4182 48.4984 45.1182ZM35.0984 20.5182C35.6984 20.5182 36.0984 20.1182 36.0984 19.5182V17.8182C36.6984 18.1182 37.0984 18.8182 37.0984 19.5182C37.0984 20.6182 36.1984 21.5182 35.0984 21.5182C33.9984 21.5182 33.0984 20.6182 33.0984 19.5182C33.0984 18.8182 33.4984 18.1182 34.0984 17.8182V19.5182C34.0984 20.1182 34.5984 20.5182 35.0984 20.5182ZM14.8984 3.91816C14.8984 3.21816 15.4984 2.61816 16.1984 2.61816H32.7984C33.4984 2.61816 34.0984 3.21816 34.0984 3.91816V12.0182H14.8984V3.91816ZM13.8984 20.5182C14.4984 20.5182 14.8984 20.1182 14.8984 19.5182V17.8182C15.4984 18.1182 15.8984 18.8182 15.8984 19.5182C15.8984 20.6182 14.9984 21.5182 13.8984 21.5182C12.7984 21.5182 11.8984 20.6182 11.8984 19.5182C11.8984 18.8182 12.2984 18.1182 12.8984 17.8182V19.5182C12.8984 20.1182 13.2984 20.5182 13.8984 20.5182ZM46.1984 46.2182C45.9984 46.5182 45.5984 46.6182 45.2984 46.6182H3.69844C3.29844 46.6182 2.99844 46.5182 2.79844 46.2182C2.59844 45.9182 2.49844 45.6182 2.49844 45.3182L2.79844 42.8182H46.4984C47.0984 42.8182 47.4984 42.4182 47.4984 41.8182C47.4984 41.2182 47.0984 40.8182 46.4984 40.8182H2.99844L5.99844 14.0182H12.7984V15.7182C11.0984 16.1182 9.79844 17.7182 9.79844 19.6182C9.79844 21.8182 11.5984 23.6182 13.7984 23.6182C15.9984 23.6182 17.7984 21.8182 17.7984 19.6182C17.7984 17.7182 16.4984 16.2182 14.7984 15.7182V14.0182H34.0984V15.7182C32.3984 16.1182 31.0984 17.7182 31.0984 19.6182C31.0984 21.8182 32.8984 23.6182 35.0984 23.6182C37.2984 23.6182 39.0984 21.8182 39.0984 19.6182C39.0984 17.7182 37.7984 16.2182 36.0984 15.7182V14.0182H42.9984L46.4984 45.3182C46.4984 45.6182 46.3984 45.9182 46.1984 46.2182Z" fill="black"/>
</svg>
